<svg width="24" height="24" viewBox="0 0 24 24" fill="none" xmlns="http://www.w3.org/2000/svg">
<path fill-rule="evenodd" clip-rule="evenodd" d="M19.4998 6.00014C19.6804 6.00015 19.7685 6.22054 19.6376 6.34502L14.3435 11.3834C13.9573 11.7509 13.3508 11.7509 12.9647 11.3834L11.6618 10.1433C11.624 10.1073 11.5646 10.1073 11.5267 10.1433L8.21716 13.2933C7.80128 13.6891 7.14803 13.6891 6.73216 13.2933L4.76422 11.4203C4.3484 11.0245 4.3484 10.3613 4.76421 9.96554C5.15196 9.59649 5.76104 9.59649 6.14879 9.96554L7.46462 11.2179C7.47024 11.2233 7.47907 11.2233 7.4847 11.2179L10.9048 7.9627C11.291 7.59517 11.8975 7.59517 12.2837 7.9627L13.5851 9.20138C13.6237 9.23813 13.6844 9.23813 13.723 9.20138L15.6717 7.34687L17.087 6L19.4998 6.00014Z" fill="#474F5E"/>
<path d="M14.6772 6.34059C14.5523 6.21426 14.6418 6 14.8195 6L17.087 6L15.6717 7.34687L14.6772 6.34059Z" fill="#474F5E"/>
<path d="M6.55014 16.6298L4.85895 14.8858C4.54626 14.5633 4 14.7847 4 15.2339V19C4 19.5523 4.44772 20 5 20H19C19.5523 20 20 19.5523 20 19V9.23387C20 8.78469 19.4537 8.56333 19.141 8.88579L13.8135 14.3798C13.6171 14.5824 13.292 14.5824 13.0956 14.3798L11.6317 12.8702C11.4352 12.6676 11.1102 12.6676 10.9138 12.8702L7.26804 16.6298C7.07161 16.8324 6.74657 16.8324 6.55014 16.6298Z" fill="#474F5E"/>
</svg>
